<svg id="_39_Weather" enable-background="new 0 0 512 512" viewBox="0 0 512 512" xmlns="http://www.w3.org/2000/svg" xmlns:xlink="http://www.w3.org/1999/xlink"><linearGradient id="lg1"><stop offset="0" stop-color="#fef0ae"/><stop offset=".1466" stop-color="#fdeea9"/><stop offset=".2986" stop-color="#fdeb9d"/><stop offset=".4531" stop-color="#fde688"/><stop offset=".6093" stop-color="#fcdf6b"/><stop offset=".7669" stop-color="#fbd646"/><stop offset=".9233" stop-color="#facc18"/><stop offset="1" stop-color="#fac600"/></linearGradient><linearGradient id="SVGID_1_" gradientTransform="matrix(1 0 0 -1 0 514)" gradientUnits="userSpaceOnUse" x1="268.392" x2="402.309" xlink:href="#lg1" y1="387.036" y2="253.119"/><linearGradient id="lg2"><stop offset="0" stop-color="#fe9738" stop-opacity="0"/><stop offset=".1207" stop-color="#fe9738" stop-opacity=".016"/><stop offset=".2459" stop-color="#fe9738" stop-opacity=".065"/><stop offset=".3731" stop-color="#fe9738" stop-opacity=".147"/><stop offset=".5018" stop-color="#fe9738" stop-opacity=".262"/><stop offset=".6317" stop-color="#fe9738" stop-opacity=".41"/><stop offset=".7625" stop-color="#fe9738" stop-opacity=".59"/><stop offset=".8916" stop-color="#fe9738" stop-opacity=".8"/><stop offset="1" stop-color="#fe9738"/></linearGradient><linearGradient id="SVGID_00000121246975107585772930000014490617827131398590_" gradientTransform="matrix(1 0 0 -1 0 514)" gradientUnits="userSpaceOnUse" x1="346.787" x2="270.408" xlink:href="#lg2" y1="324.476" y2="266.484"/><linearGradient id="SVGID_00000150816260843840699090000013566441063730144942_" gradientTransform="matrix(1 0 0 -1 0 514)" gradientUnits="userSpaceOnUse" x1="337.786" x2="337.786" xlink:href="#lg2" y1="300.816" y2="202.111"/><linearGradient id="SVGID_00000054981284725443646200000010027008266679522716_" gradientTransform="matrix(0 -1 -1 0 3679.444 -3914.616)" gradientUnits="userSpaceOnUse" x1="-4110.975" x2="-4110.975" xlink:href="#lg2" y1="3324.833" y2="3226.127"/><linearGradient id="SVGID_00000162311705121035566010000003298147859018157232_" gradientTransform="matrix(1 0 0 -1 0 514)" gradientUnits="userSpaceOnUse" x1="384.478" x2="421.403" y1="270.95" y2="234.025"><stop offset="0" stop-color="#f5fbff" stop-opacity="0"/><stop offset=".1205" stop-color="#f5fbff" stop-opacity=".016"/><stop offset=".2454" stop-color="#f5fbff" stop-opacity=".065"/><stop offset=".3724" stop-color="#f5fbff" stop-opacity=".147"/><stop offset=".5008" stop-color="#f5fbff" stop-opacity=".261"/><stop offset=".6304" stop-color="#f5fbff" stop-opacity=".408"/><stop offset=".761" stop-color="#f5fbff" stop-opacity=".588"/><stop offset=".8898" stop-color="#f5fbff" stop-opacity=".797"/><stop offset="1" stop-color="#f5fbff"/></linearGradient><linearGradient id="SVGID_00000144329625442367723910000010203472203720445847_" gradientTransform="matrix(1 0 0 -1 119.235 679.958)" gradientUnits="userSpaceOnUse" x1="209.343" x2="227.259" xlink:href="#lg1" y1="633.414" y2="633.414"/><linearGradient id="SVGID_00000041978277066313936310000003130810583255439524_" gradientTransform="matrix(0 1 1 0 -279.724 -178.292)" gradientUnits="userSpaceOnUse" x1="365.442" x2="383.358" xlink:href="#lg1" y1="767.325" y2="767.325"/><linearGradient id="SVGID_00000100376485729788176420000009143984181421921181_" gradientTransform="matrix(-.707 .707 -.707 -.707 955.754 333.46)" gradientUnits="userSpaceOnUse" x1="330.816" x2="348.732" xlink:href="#lg1" y1="683.73" y2="683.73"/><linearGradient id="SVGID_00000092414547115862615650000017406302361775958448_" gradientTransform="matrix(-.707 .707 -.707 -.707 955.754 333.46)" gradientUnits="userSpaceOnUse" x1="330.816" x2="348.732" xlink:href="#lg1" y1="384.1" y2="384.1"/><linearGradient id="SVGID_00000088820965539793500670000017921324892461940142_" gradientTransform="matrix(.707 .707 .707 -.707 -257.994 333.46)" gradientUnits="userSpaceOnUse" x1="315.127" x2="333.043" xlink:href="#lg1" y1="668.04" y2="668.04"/><linearGradient id="lg3"><stop offset="0" stop-color="#eaf6ff"/><stop offset=".2651" stop-color="#e5f3fe"/><stop offset=".5398" stop-color="#d9edfe"/><stop offset=".8179" stop-color="#c4e3fe"/><stop offset="1" stop-color="#b3dafe"/></linearGradient><linearGradient id="SVGID_00000022547376466846705100000004462678108117050031_" gradientTransform="matrix(1 0 0 -1 0 514)" gradientUnits="userSpaceOnUse" x1="130.738" x2="250.803" xlink:href="#lg3" y1="284.092" y2="78.647"/><linearGradient id="lg4"><stop offset="0" stop-color="#8ac9fe" stop-opacity="0"/><stop offset=".1291" stop-color="#89c8fd" stop-opacity=".019"/><stop offset=".2629" stop-color="#88c6fb" stop-opacity=".075"/><stop offset=".3989" stop-color="#87c4f8" stop-opacity=".168"/><stop offset=".5365" stop-color="#85c0f4" stop-opacity=".298"/><stop offset=".6753" stop-color="#83bbef" stop-opacity=".466"/><stop offset=".8151" stop-color="#7fb5e9" stop-opacity=".672"/><stop offset=".9532" stop-color="#7caee1" stop-opacity=".911"/><stop offset="1" stop-color="#7bacdf"/></linearGradient><linearGradient id="SVGID_00000061442075916446545240000001726880308130529413_" gradientTransform="matrix(1 0 0 -1 0 514)" gradientUnits="userSpaceOnUse" x1="327.21" x2="401.019" xlink:href="#lg4" y1="162.537" y2="162.537"/><linearGradient id="SVGID_00000173160716845482081260000011263945466304534463_" gradientTransform="matrix(1 0 0 -1 0 514)" gradientUnits="userSpaceOnUse" x1="102.652" x2="141.34" xlink:href="#lg4" y1="206.073" y2="271.442"/><linearGradient id="SVGID_00000176038066853134024760000010623922379573315246_" gradientTransform="matrix(1 0 0 -1 0 514)" gradientUnits="userSpaceOnUse" x1="245.839" x2="317.878" xlink:href="#lg4" y1="269.825" y2="300.508"/><linearGradient id="SVGID_00000073692903011906406170000009886925266182315155_" gradientTransform="matrix(1 0 0 -1 0 514)" gradientUnits="userSpaceOnUse" x1="344.4" x2="420.024" xlink:href="#lg3" y1="145.077" y2="15.674"/><linearGradient id="SVGID_00000160155618801106356020000015724848840002948506_" gradientTransform="matrix(1 0 0 -1 0 514)" gradientUnits="userSpaceOnUse" x1="468.151" x2="514.64" xlink:href="#lg4" y1="68.514" y2="68.514"/><linearGradient id="SVGID_00000132807146563229117560000003619237450294132147_" gradientTransform="matrix(1 0 0 -1 0 514)" gradientUnits="userSpaceOnUse" x1="326.71" x2="351.078" xlink:href="#lg4" y1="95.935" y2="137.109"/><linearGradient id="SVGID_00000052799832052681393440000000421111165260944772_" gradientTransform="matrix(1 0 0 -1 0 514)" gradientUnits="userSpaceOnUse" x1="410.512" x2="455.887" xlink:href="#lg4" y1="133.37" y2="152.697"/><linearGradient id="lg5"><stop offset="0" stop-color="#26a6fe"/><stop offset=".2729" stop-color="#23a1fd"/><stop offset=".5557" stop-color="#1a95fd"/><stop offset=".8419" stop-color="#0b80fb"/><stop offset="1" stop-color="#0172fb"/></linearGradient><linearGradient id="SVGID_00000091007384898001567490000008832672546100884649_" gradientTransform="matrix(.707 .707 .707 -.707 -114.939 411.883)" gradientUnits="userSpaceOnUse" x1="132.075" x2="149.991" xlink:href="#lg5" y1="82.544" y2="82.544"/><linearGradient id="SVGID_00000149343596301207386830000011940842515544398217_" gradientTransform="matrix(.707 .707 .707 -.707 -114.939 411.883)" gradientUnits="userSpaceOnUse" x1="192.744" x2="210.66" xlink:href="#lg5" y1="143.213" y2="143.213"/><linearGradient id="SVGID_00000132777371552108306800000017062310937062774155_" gradientTransform="matrix(.707 .707 .707 -.707 -114.939 411.883)" gradientUnits="userSpaceOnUse" x1="253.413" x2="271.329" xlink:href="#lg5" y1="203.882" y2="203.882"/><g><g><g><circle cx="337.8" cy="196.4" fill="url(#SVGID_1_)" r="108.2"/><circle cx="337.8" cy="196.4" fill="url(#SVGID_00000121246975107585772930000014490617827131398590_)" r="108.2"/><path d="m229.6 196.4c0 59.7 48.4 108.2 108.2 108.2 59.7 0 108.2-48.4 108.2-108.2 0-7.8-.8-15.4-2.4-22.7h-211.6c-1.6 7.3-2.4 14.9-2.4 22.7z" fill="url(#SVGID_00000150816260843840699090000013566441063730144942_)"/><path d="m337.8 304.5c59.7 0 108.2-48.4 108.2-108.2 0-59.7-48.4-108.2-108.2-108.2-7.8 0-15.4.8-22.7 2.4v211.6c7.3 1.6 14.9 2.4 22.7 2.4z" fill="url(#SVGID_00000054981284725443646200000010027008266679522716_)"/><path d="m261.3 272.9c42.2 42.2 110.7 42.2 153 0 42.2-42.2 42.2-110.7 0-153-5.5-5.5-11.5-10.3-17.7-14.3l-149.6 149.5c4 6.3 8.8 12.3 14.3 17.8z" fill="url(#SVGID_00000162311705121035566010000003298147859018157232_)"/></g><path d="m337.8 22.1c6.5 0 11.8 5.3 11.8 11.8v25.2c0 6.5-5.3 11.8-11.8 11.8-6.5 0-11.8-5.3-11.8-11.8v-25.2c0-6.5 5.3-11.8 11.8-11.8z" fill="url(#SVGID_00000144329625442367723910000010203472203720445847_)"/><path d="m512 196.4c0 6.5-5.3 11.8-11.8 11.8h-25.2c-6.5 0-11.8-5.3-11.8-11.8 0-6.5 5.3-11.8 11.8-11.8h25.2c6.5 0 11.8 5.3 11.8 11.8z" fill="url(#SVGID_00000041978277066313936310000003130810583255439524_)"/><g><path d="m249.1 107.7c-4.6 4.6-12.1 4.6-16.7 0l-17.8-17.8c-4.6-4.6-4.6-12.1 0-16.7 4.6-4.6 12.1-4.6 16.7 0l17.8 17.8c4.6 4.6 4.6 12.1 0 16.7z" fill="url(#SVGID_00000100376485729788176420000009143984181421921181_)"/><path d="m461 319.5c-4.6 4.6-12.1 4.6-16.7 0l-17.8-17.8c-4.6-4.6-4.6-12.1 0-16.7 4.6-4.6 12.1-4.6 16.7 0l17.8 17.8c4.6 4.7 4.6 12.1 0 16.7z" fill="url(#SVGID_00000092414547115862615650000017406302361775958448_)"/></g><path d="m461 73.2c4.6 4.6 4.6 12.1 0 16.7l-17.8 17.8c-4.6 4.6-12.1 4.6-16.7 0-4.6-4.6-4.6-12.1 0-16.7l17.8-17.8c4.6-4.6 12.1-4.6 16.7 0z" fill="url(#SVGID_00000088820965539793500670000017921324892461940142_)"/></g><g><path d="m326.4 281c-6.1 0-12 .8-17.6 2.2 1.8-7.6 2.8-15.6 2.8-23.8 0-56.1-45.5-101.6-101.6-101.6-53.7 0-97.7 41.7-101.3 94.6-7.2-1.9-14.7-3-22.5-3-47.6 0-86.2 38.7-86.2 86.3s38.6 86.2 86.2 86.2h240.2c38.9 0 70.4-31.5 70.4-70.4s-31.5-70.5-70.4-70.5z" fill="url(#SVGID_00000022547376466846705100000004462678108117050031_)"/><circle cx="326.4" cy="351.5" fill="url(#SVGID_00000061442075916446545240000001726880308130529413_)" r="70.4"/><circle cx="86.2" cy="335.7" fill="url(#SVGID_00000173160716845482081260000011263945466304534463_)" r="86.2"/><path d="m311.6 259.4c0 8.2-1 16.2-2.8 23.8-30 7.7-52.2 34.6-52.8 66.8-13.8 7-29.4 11-46 11-56.1 0-101.6-45.5-101.6-101.6s45.5-101.6 101.6-101.6 101.6 45.5 101.6 101.6z" fill="url(#SVGID_00000176038066853134024760000010623922379573315246_)"/></g><g><path d="m467.6 401.1c-3.8 0-7.6.5-11.1 1.4 1.2-4.8 1.8-9.8 1.8-15 0-35.3-28.6-64-64-64-33.9 0-61.5 26.3-63.8 59.6-4.5-1.2-9.3-1.9-14.1-1.9-30 0-54.3 24.3-54.3 54.3s24.3 54.3 54.3 54.3h151.3c24.5 0 44.4-19.9 44.4-44.4-.1-24.4-20-44.3-44.5-44.3z" fill="url(#SVGID_00000073692903011906406170000009886925266182315155_)"/><circle cx="467.6" cy="445.5" fill="url(#SVGID_00000160155618801106356020000015724848840002948506_)" r="44.4"/><circle cx="316.4" cy="435.5" fill="url(#SVGID_00000132807146563229117560000003619237450294132147_)" r="54.3"/><path d="m458.3 387.5c0 5.2-.6 10.2-1.8 15-18.9 4.9-32.9 21.8-33.3 42.1-8.7 4.4-18.5 6.9-28.9 6.9-35.3 0-64-28.6-64-64 0-35.3 28.6-64 64-64s64 28.7 64 64z" fill="url(#SVGID_00000052799832052681393440000000421111165260944772_)"/></g><g><path d="m60.6 436.2c4.6 4.6 4.6 12.1 0 16.7l-17.8 17.8c-4.6 4.6-12.1 4.6-16.7 0-4.6-4.6-4.6-12.1 0-16.7l17.8-17.8c4.6-4.6 12.1-4.6 16.7 0z" fill="url(#SVGID_00000091007384898001567490000008832672546100884649_)"/><path d="m146.4 436.2c4.6 4.6 4.6 12.1 0 16.7l-17.8 17.8c-4.6 4.6-12.1 4.6-16.7 0-4.6-4.6-4.6-12.1 0-16.7l17.8-17.8c4.6-4.6 12.1-4.6 16.7 0z" fill="url(#SVGID_00000149343596301207386830000011940842515544398217_)"/><path d="m232.2 436.2c4.6 4.6 4.6 12.1 0 16.7l-17.8 17.8c-4.6 4.6-12.1 4.6-16.7 0-4.6-4.6-4.6-12.1 0-16.7l17.8-17.8c4.6-4.6 12.1-4.6 16.7 0z" fill="url(#SVGID_00000132777371552108306800000017062310937062774155_)"/></g></g></svg>