<svg viewBox="0 0 48 48" xmlns="http://www.w3.org/2000/svg" xmlns:xlink="http://www.w3.org/1999/xlink"><linearGradient id="linear-gradient" gradientUnits="userSpaceOnUse" x1="24" x2="24" y1="47" y2="25"><stop offset="0" stop-color="#d3e6f5"/><stop offset="1" stop-color="#f0f7fc"/></linearGradient><linearGradient id="linear-gradient-2" gradientUnits="userSpaceOnUse" x1="24" x2="24" y1="32" y2="1"><stop offset="0" stop-color="#54a5ff"/><stop offset="1" stop-color="#8ad3fe"/></linearGradient><linearGradient id="linear-gradient-3" gradientUnits="userSpaceOnUse" x1="34" x2="34" y1="15" y2="1"><stop offset="0" stop-color="#fe9661"/><stop offset="1" stop-color="#ffb369"/></linearGradient><g id="Location_Not_Found" data-name="Location Not Found"><path d="m43 45.8a1 1 0 0 1 -1 1.2h-36a1 1 0 0 1 -1-1.2l4-20a1 1 0 0 1 1-.8h28a1 1 0 0 1 1 .8z" fill="url(#linear-gradient)"/><path d="m36.88 12.19a13 13 0 0 1 -5.18 12.28c-6.45 4.76-6.3 7.53-7.7 7.53s-1.26-2.8-7.69-7.52a13 13 0 1 1 20.57-12.29z" fill="url(#linear-gradient-2)"/><circle cx="24" cy="14" fill="#8ad3fe" r="8"/><path d="m32.28 37.64 7.2 9.36h-7.57l-4.66-6.06-9.22 6.06h-10.93l31.92-20.98 1.27 6.35z" fill="#b4cde1"/><circle cx="34" cy="8" fill="url(#linear-gradient-3)" r="7"/><path d="m35.38 8 1.33-1.33a1 1 0 0 0 0-1.41 1 1 0 0 0 -1.42 0l-1.29 1.29-1.37-1.33a1 1 0 0 0 -1.41 1.41l1.33 1.37-1.33 1.29a1 1 0 0 0 0 1.42 1 1 0 0 0 1.41 0l1.37-1.33 1.33 1.33a1 1 0 0 0 1.42-1.42z" fill="#f0f7fc"/><g fill="#b4cde1"><path d="m14 33h-2a1 1 0 0 1 0-2h2a1 1 0 0 1 0 2z"/><path d="m15 29h-2a1 1 0 0 1 0-2h2a1 1 0 0 1 0 2z"/></g></g></svg>